<?xml version="1.0" encoding="UTF-8"?>
<svg id="Layer_1" data-name="Layer 1" xmlns="http://www.w3.org/2000/svg" viewBox="0 0 323.83 323.83">
  <defs>
    <style>
      .cls-1 {
        fill: #f9a61a;
      }

      .cls-2, .cls-3 {
        fill: #33449b;
      }

      .cls-3 {
        opacity: .5;
      }
    </style>
  </defs>
  <path class="cls-2" d="m161.92,323.83C72.64,323.83,0,251.2,0,161.92S72.64,0,161.92,0s161.92,72.64,161.92,161.92-72.63,161.92-161.92,161.92Zm0-305.83C82.56,18,18,82.56,18,161.92s64.56,143.92,143.92,143.92,143.92-64.56,143.92-143.92S241.27,18,161.92,18Z"/>
  <circle class="cls-3" cx="161.92" cy="161.92" r="152.92"/>
  <g>
    <path class="cls-1" d="m152.53,125.56s18.49-10.75,24.52,12.04c6.02,22.8,12.9,46.45,11.18,51.61-1.72,5.16-43.73,26.53-97.2,54.19-24.95,12.9-22.37,15.05-22.8,24.95-.43,9.89,8.17,27.1,30.97,30.11,22.8,3.01,70.11-13.76,93.76-24.52,15.98-7.26,29.6-15.12,43.13-21.44,12.3-5.75,19.97-18.27,19.52-31.83-.34-10.08-1.12-20.66-2.86-25.87-3.87-11.61-21.51-53.33-23.66-65.38-2.15-12.04-20.21-53.76-36.56-57.63-16.34-3.87-21.94,10.75-39.14,18.92-17.2,8.17-48.17,19.78-53.76,22.8-5.59,3.01-8.6,15.91,7.31,16.34,15.91.43,35.7-1.77,45.59-4.3Z"/>
    <path class="cls-2" d="m105.11,307.82c-2.56,0-4.93-.14-7.1-.43-27.77-3.67-39.4-25.26-38.78-39.42.04-.86.05-1.65.06-2.39.21-13.32,4.85-18.4,27.59-30.16l11.49-5.94c35.61-18.4,72.34-37.38,81.06-44.02-.61-6.39-5.06-22.98-8.4-35.45-.9-3.35-1.81-6.73-2.7-10.11-1.08-4.1-2.67-6.78-4.46-7.55-2.11-.9-5.5.27-6.87,1.01l-1.12.69-1.14.23c-10.09,2.58-30.35,5.06-48.06,4.58-3.99-.11-17.24-1.4-20.11-13.48-1.81-7.61,1.96-16.11,8.78-19.78,2.76-1.49,8.98-4.02,19.72-8.38,11.17-4.53,25.07-10.16,34.45-14.62,5.36-2.55,9.54-5.96,13.59-9.26,7.9-6.45,16.85-13.76,31.49-10.29,9.78,2.32,19.68,12.47,29.42,30.17,6.65,12.09,12.51,26.66,13.93,34.64,1.27,7.09,9.92,29.2,15.64,43.83,3.39,8.66,6.31,16.13,7.7,20.28,1.77,5.31,2.85,14.6,3.32,28.42.57,17.19-9.12,33-24.7,40.29-5.93,2.77-11.9,5.86-18.22,9.12-7.87,4.06-16,8.27-24.99,12.35-14.3,6.5-32.4,13.18-48.4,17.86-17.75,5.2-32.22,7.81-43.17,7.81Zm56.97-193.79c2.75,0,5.69.46,8.66,1.69,5.04,2.09,11.73,7.18,15.01,19.6.88,3.35,1.79,6.72,2.68,10.04,7.9,29.45,10.47,40.32,8.34,46.72-2.44,7.33-12.55,13.32-90.12,53.4l-11.48,5.94c-6.13,3.17-14.58,7.72-17.24,10.66-.55.61-.58.64-.62,3.79-.01.9-.03,1.86-.07,2.89-.24,5.52,5.26,18.43,23.15,20.79,8.7,1.15,23.92-1.27,42.85-6.81,17.94-5.25,35.53-12.21,46.01-16.97,8.58-3.9,16.51-8,24.18-11.96,6.48-3.35,12.61-6.51,18.86-9.44,9.04-4.22,14.66-13.4,14.33-23.38-.54-16.17-1.86-21.7-2.4-23.33-1.24-3.72-4.08-10.99-7.38-19.42-8.51-21.75-15.13-39.04-16.6-47.22-.78-4.38-5.13-16.66-11.98-29.13-8.54-15.54-15.2-20.72-17.79-21.33-5.7-1.35-8.55.67-15.96,6.72-4.42,3.61-9.92,8.1-17.25,11.58-9.86,4.68-24.02,10.43-35.41,15.04-6.52,2.64-13.23,5.36-16.46,6.83.48.07,1.08.12,1.8.14,14.75.4,32.96-1.62,42.16-3.79,2.29-1.12,7.08-3.05,12.74-3.05Zm18.77,70.21h0s0,0,0,0Zm-28.32-58.68h0,0Z"/>
  </g>
</svg>