<?xml version="1.0" encoding="UTF-8"?>
<svg id="Layer_1" data-name="Layer 1" xmlns="http://www.w3.org/2000/svg" viewBox="0 0 323.83 323.83">
  <defs>
    <style>
      .cls-1 {
        fill: #8c94c0;
      }

      .cls-2 {
        fill: none;
      }

      .cls-2, .cls-3 {
        stroke: #33449b;
        stroke-linecap: round;
        stroke-miterlimit: 10;
        stroke-width: 18px;
      }

      .cls-3 {
        fill: #f9a61a;
      }
    </style>
  </defs>
  <circle class="cls-1" cx="161.92" cy="161.92" r="152.92"/>
  <circle class="cls-2" cx="161.92" cy="161.92" r="152.92"/>
  <path class="cls-3" d="m152.53,125.56s18.49-10.75,24.52,12.04c6.02,22.8,12.9,46.45,11.18,51.61-1.72,5.16-43.73,26.53-97.2,54.19-24.95,12.9-22.37,15.05-22.8,24.95-.43,9.89,8.17,27.1,30.97,30.11,22.8,3.01,70.11-13.76,93.76-24.52,15.98-7.26,29.6-15.12,43.13-21.44,12.3-5.75,19.97-18.27,19.52-31.83-.34-10.08-1.12-20.66-2.86-25.87-3.87-11.61-21.51-53.33-23.66-65.38-2.15-12.04-20.21-53.76-36.56-57.63-16.34-3.87-21.94,10.75-39.14,18.92-17.2,8.17-48.17,19.78-53.76,22.8-5.59,3.01-8.6,15.91,7.31,16.34,15.91.43,35.7-1.77,45.59-4.3Z"/>
</svg>