<svg width="390" height="190" viewBox="0 0 390 190" fill="none" xmlns="http://www.w3.org/2000/svg">
<path d="M150.29 68.89C146.54 75.14 142.92 81.93 139.42 89.26C134.67 98.92 132.3 105.42 132.3 108.75C132.3 110.08 132.72 110.83 133.55 111C135.38 111.25 137.55 110.37 140.05 108.38C141.55 106.8 143.11 105.18 144.73 103.51C146.36 101.85 148.46 99.97 151.04 97.89C151.87 97.47 152.99 97.6 154.41 98.26C155.16 99.35 155.16 100.47 154.41 101.64C149.74 108.47 144.5 114.18 138.67 118.76C132.59 123.51 127.22 125.88 122.55 125.88C118.8 125.88 115.84 124.34 113.68 121.25C111.76 118.58 110.81 115.24 110.81 111.23C110.81 107.89 111.43 104.68 112.68 101.59C114.18 98 115.68 94.37 117.18 90.69C119.59 85.1 122.26 79.8 125.18 74.79C125.26 74.79 123.47 74.75 119.81 74.67C117.56 74.59 115.48 74.67 113.56 74.92C113.14 76.09 112.6 77.91 111.94 80.41C109.11 90.55 104.74 99.65 98.8196 107.7C88.9896 121.08 77.4996 127.77 64.3396 127.77C55.9296 127.77 48.6996 125.44 42.6596 120.8C36.6196 116.15 33.5996 110.55 33.5996 103.98C33.5996 98.5 36.0596 93.39 40.9696 88.66C43.1296 86.58 45.6796 85.55 48.5896 85.55C51.3396 85.55 53.6896 86.48 55.6496 88.35C57.5996 90.21 58.5796 92.43 58.5796 95.01C58.5796 99.24 56.8696 102.02 53.4596 103.35C50.3796 104.6 48.8396 106.71 48.8396 109.7C48.8396 111.69 49.6696 113.37 51.3396 114.74C53.0096 116.11 54.9996 116.79 57.3396 116.79C59.6796 116.79 62.5896 115.67 65.8396 113.43C70.7496 110.03 75.3396 104.63 79.5796 97.25C81.1596 94.51 84.2396 89.33 88.8296 81.69C86.3296 82.52 84.1596 83.65 82.3296 85.06C80.2496 86.48 77.4596 88.73 73.9596 91.81C73.5396 92.39 72.8396 92.69 71.8396 92.69C70.0096 92.69 69.0896 91.73 69.0896 89.81C69.0896 89.56 69.1896 89.23 69.3996 88.81C69.6096 88.4 69.7096 88.1 69.7096 87.94C70.3796 86.94 72.8296 84.9 77.0796 81.82C82.2396 78.24 86.5796 75.87 90.0696 74.7C90.3996 74.7 90.9796 74.51 91.8196 74.14C92.6496 73.76 93.2796 73.58 93.6896 73.58L101.81 60.21C93.9796 64.54 87.6096 66.71 82.6896 66.71C79.0196 66.71 75.8996 65.54 73.3196 63.21C70.7396 60.88 69.4496 58.09 69.4496 54.84C69.4496 48.26 71.6996 42.64 76.1996 37.97C80.6996 33.24 86.1096 30.91 92.4396 30.91C94.6896 30.91 95.8096 31.58 95.8096 32.91C95.8096 33.49 95.4796 34.16 94.8096 34.91C93.4796 36.08 92.1396 37.24 90.8096 38.41C89.1396 40.16 88.3096 42.37 88.3096 45.03C88.3096 46.86 89.0196 48.42 90.4296 49.72C91.8396 51.01 93.5096 51.66 95.4296 51.66C101.51 51.66 109.05 47.62 118.04 39.54C123.95 34.21 128.45 31.55 131.53 31.55C134.11 31.55 135.4 32.26 135.4 33.67C135.4 34.25 135.11 34.87 134.52 35.54C132.6 37.12 129.9 39.82 126.4 43.63C124.15 46.87 120.57 55.25 115.65 68.78C116.32 68.78 117.4 68.74 118.9 68.65C120.4 68.57 121.56 68.53 122.4 68.53C124.31 68.53 126.69 68.28 129.52 67.78C135.6 58.7 142.31 50.75 149.64 43.92C159.66 34.66 168.66 30.03 176.65 30.03C181.9 30.03 184.52 32.15 184.52 36.4C184.52 40.15 182.15 44.81 177.4 50.39C170.49 58.55 161.45 64.72 150.29 68.88V68.89ZM172.53 46.65C174.95 43.4 176.15 41.24 176.15 40.15C176.15 39.15 175.44 38.65 174.03 38.65C172.28 38.65 169.79 40.77 166.54 45.02C162.46 50.27 158.87 55.27 155.79 60.01C161.54 57.43 165.7 54.64 168.28 51.64C169.36 50.39 170.78 48.73 172.53 46.64V46.65Z" fill="white"/>
<path d="M172.279 108.37C171.859 112.95 173.529 115.28 177.279 115.37C179.609 115.45 182.569 114.45 186.149 112.37C189.399 110.37 192.229 108.12 194.649 105.62C197.809 102.2 199.959 100.15 201.079 99.44C202.199 98.73 202.889 98.38 203.139 98.38C203.799 98.38 204.639 98.71 205.639 99.38C206.059 99.71 206.259 100.13 206.259 100.63C206.259 102.46 203.339 106.09 197.509 111.5C186.759 121.41 176.939 126.37 168.019 126.37C165.269 126.37 162.859 125.79 160.769 124.62C157.939 123.04 155.729 120.58 154.149 117.25C152.819 114.5 152.319 112.17 152.649 110.25C152.979 108.17 153.229 106.8 153.399 106.13C153.899 104.8 154.819 103.59 156.149 102.51C153.979 104.67 152.439 105.76 151.529 105.76C150.779 105.76 150.089 105.38 149.469 104.63C148.849 103.88 148.529 103.13 148.529 102.38C148.529 101.38 149.359 100.3 151.029 99.13C151.949 98.46 154.719 95.38 159.339 89.88C163.959 84.38 168.689 79.84 173.519 76.26C180.349 71.1 186.429 68.51 191.759 68.51C195.259 68.51 198.049 69.55 200.129 71.63C202.459 73.96 203.629 76.46 203.629 79.13C203.629 83.13 201.129 87.8 196.129 93.12C189.209 100.45 181.259 105.53 172.259 108.36L172.279 108.37ZM180.779 95.75C182.109 95.75 184.939 93.46 189.269 88.88C191.849 86.13 193.139 83.26 193.139 80.26C193.139 78.93 192.639 78.26 191.639 78.26C190.059 78.26 187.229 80.97 183.149 86.38C180.319 89.79 178.899 92.37 178.899 94.12C178.899 95.21 179.519 95.74 180.769 95.74L180.779 95.75Z" fill="white"/>
<path d="M201.51 105.5C201.09 105.5 200.65 105.15 200.2 104.44C199.74 103.73 199.51 103.05 199.51 102.38C199.51 101.88 199.59 101.47 199.76 101.13C201.84 98.96 205.42 95.05 210.5 89.38C212.83 86.55 216.72 81.07 222.18 72.95C227.63 64.83 231.28 59.06 233.11 55.65C240.52 41.57 244.89 34.82 246.23 35.41C247.48 35.91 248.94 36.99 250.61 38.66C252.27 40.33 253.4 41.95 253.98 43.53C254.81 45.61 255.23 47.07 255.23 47.9C255.23 49.15 254.73 50.82 253.73 52.9C246.31 67.81 238.44 83.89 230.11 101.13C229.19 103.46 228.74 105.08 228.74 106C228.74 107.33 229.53 107.83 231.11 107.5C232.36 107.25 234.53 105.56 237.61 102.44C240.69 99.31 242.77 97.75 243.86 97.75C245.69 97.75 246.61 98.5 246.61 100C246.61 100.75 246.4 101.37 245.99 101.87C243.49 104.54 240.99 107.25 238.49 109.99C233.49 115.15 229.79 118.49 227.37 119.98C222.12 123.4 217.58 125.1 213.75 125.1C209.92 125.1 206.96 123.31 205.13 119.73C204.79 119.15 204.63 118.36 204.63 117.36C204.63 111.86 209.13 101.54 218.12 86.38C209.29 99.12 203.75 105.49 201.5 105.49L201.51 105.5Z" fill="white"/>
<path d="M282.719 102.38C284.389 101.63 285.969 100.42 287.469 98.7601C288.469 97.5901 289.639 97.0101 290.969 97.0101C292.719 97.0101 293.589 97.8401 293.589 99.5101C293.589 100.26 292.839 101.51 291.339 103.26C288.759 106.34 285.429 108.22 281.339 108.88C279.089 115.13 275.509 119.67 270.599 122.5C267.269 124.42 263.849 125.37 260.359 125.37C252.449 125.37 247.369 123.33 245.119 119.25C243.699 116.75 242.999 114.25 242.999 111.75C242.999 107.59 244.619 104.71 247.869 103.13C250.529 101.88 253.239 101.26 255.989 101.26C257.569 101.26 260.529 101.55 264.859 102.13C265.279 100.05 265.399 96.38 265.229 91.14C265.149 86.48 265.479 82.9001 266.229 80.4001C263.809 81.8201 260.019 85.4801 254.859 91.4001C248.189 99.0601 244.649 103.1 244.239 103.52C242.739 105.02 241.239 105.27 239.739 104.27C238.329 103.27 238.329 101.98 239.739 100.4C243.659 95.8201 250.189 88.3701 259.359 78.0401C263.109 74.0401 267.189 70.79 271.599 68.3C276.009 65.8 279.799 64.55 282.969 64.55C288.549 64.55 291.339 66.92 291.339 71.67C291.339 73.42 290.629 74.9601 289.219 76.2901C287.799 77.6201 286.299 78.2901 284.719 78.2901C284.299 78.2901 283.889 78.25 283.469 78.17C280.969 77.5 279.259 77.63 278.349 78.55C277.429 79.47 276.979 80.51 276.979 81.67C276.979 82.83 277.479 85.1301 278.479 88.5401C278.649 88.9601 279.559 91.2501 281.229 95.4101C282.229 97.9101 282.729 100.24 282.729 102.41L282.719 102.38ZM262.979 108.13C257.399 107.47 254.229 107.38 253.489 107.88C252.159 108.72 251.489 109.71 251.489 110.88C251.489 112.38 252.279 113.55 253.869 114.38C254.449 114.63 255.039 114.76 255.619 114.76C258.369 114.76 260.829 112.55 262.989 108.14L262.979 108.13Z" fill="white"/>
<path d="M329.319 96.13C327.819 96.13 325.069 98.25 321.069 102.5C317.819 105.91 315.739 107.62 314.819 107.62C314.069 107.62 313.699 107.16 313.699 106.25C313.699 104.25 315.279 99.75 318.449 92.76C321.869 85.26 323.569 80.39 323.569 78.14C323.569 76.22 321.739 73.1 318.069 68.77C317.239 67.77 316.449 67.27 315.699 67.27C315.279 67.27 313.949 67.56 311.699 68.15C310.029 68.57 307.659 70.94 304.579 75.27C301.829 79.19 299.119 83.1 296.459 87.01C291.209 93.59 287.749 97.84 286.089 99.75C285.089 101.34 285.509 102.71 287.339 103.87C288.839 103.79 289.959 103.45 290.709 102.87C294.959 98.04 298.749 93.54 302.079 89.38C297.169 99.46 294.289 105.54 293.459 107.62C291.879 111.45 291.089 114.91 291.089 117.99C291.089 119.49 291.719 121.03 292.959 122.61C294.539 124.61 296.579 125.61 299.079 125.61C302.829 125.61 308.619 122.49 316.449 116.24C323.699 110.49 328.399 105.79 330.569 102.12C331.479 100.54 331.939 99.33 331.939 98.5C331.939 96.92 331.069 96.13 329.319 96.13Z" fill="white"/>
<path d="M197.321 46.56V38.52H194.461V36.88H202.151V38.53H199.281V46.56H197.331H197.321Z" fill="white"/>
<path d="M203.711 46.57V36.89H205.671V40.7H209.491V36.89H211.451V46.57H209.491V42.34H205.661V46.57H203.711Z" fill="white"/>
<path d="M213.771 46.58V36.9H220.961V38.53H215.741V40.67H220.601V42.3H215.741V44.93H221.141V46.56L213.781 46.55L213.771 46.58Z" fill="white"/>
<path d="M150.37 68.88C146.62 75.13 142.99 81.93 139.49 89.26C134.74 98.93 132.36 105.43 132.36 108.76C132.36 110.1 132.78 110.84 133.61 111.01C135.44 111.26 137.61 110.39 140.11 108.38C141.61 106.8 143.17 105.17 144.8 103.5C146.43 101.83 148.53 99.96 151.11 97.87C151.94 97.45 153.07 97.58 154.48 98.25C155.23 99.33 155.23 100.46 154.48 101.63C149.81 108.46 144.56 114.18 138.73 118.76C132.64 123.51 127.27 125.89 122.6 125.89C118.85 125.89 115.89 124.34 113.72 121.25C111.8 118.58 110.84 115.23 110.84 111.22C110.84 107.88 111.47 104.66 112.72 101.57C114.22 97.98 115.72 94.34 117.22 90.66C119.64 85.06 122.3 79.76 125.22 74.74C125.3 74.74 123.51 74.7 119.84 74.62C117.59 74.54 115.5 74.62 113.59 74.87C113.17 76.03 112.63 77.86 111.97 80.36C109.14 90.51 104.76 99.61 98.8401 107.68C89.0001 121.07 77.5001 127.76 64.3301 127.76C55.9101 127.76 48.6801 125.43 42.6401 120.78C36.6001 116.13 33.5801 110.52 33.5801 103.95C33.5801 98.47 36.0401 93.36 40.9601 88.62C43.1201 86.54 45.6701 85.5 48.5901 85.5C51.3401 85.5 53.6901 86.44 55.6501 88.3C57.6101 90.17 58.5901 92.39 58.5901 94.96C58.5901 99.2 56.8801 101.98 53.4601 103.3C50.3701 104.55 48.8301 106.66 48.8301 109.65C48.8301 111.64 49.6601 113.32 51.3301 114.69C53.0001 116.06 55.0001 116.75 57.3301 116.75C59.6601 116.75 62.5801 115.63 65.8301 113.39C70.7501 109.98 75.3301 104.59 79.5801 97.2C81.1601 94.46 84.2501 89.27 88.8301 81.63C86.3301 82.46 84.1601 83.59 82.3301 85.01C80.2501 86.43 77.4501 88.68 73.9501 91.76C73.5301 92.35 72.8301 92.64 71.8301 92.64C70.0001 92.64 69.0801 91.68 69.0801 89.76C69.0801 89.51 69.1801 89.18 69.3901 88.76C69.6001 88.35 69.7001 88.05 69.7001 87.89C70.3701 86.89 72.8301 84.85 77.0801 81.76C82.2501 78.18 86.5801 75.8 90.0801 74.63C90.4101 74.63 90.9901 74.44 91.8301 74.07C92.6601 73.69 93.2901 73.51 93.7001 73.51L101.83 60.13C94.0001 64.46 87.6201 66.63 82.7001 66.63C79.0301 66.63 75.9101 65.46 73.3201 63.13C70.7401 60.8 69.4501 58.01 69.4501 54.75C69.4501 48.17 71.7001 42.54 76.2001 37.87C80.7301 33.21 86.1501 30.87 92.4801 30.87C94.7301 30.87 95.8601 31.54 95.8601 32.87C95.8601 33.45 95.5301 34.12 94.8601 34.87C93.5301 36.04 92.1901 37.21 90.8601 38.37C89.1901 40.12 88.3601 42.33 88.3601 44.99C88.3601 46.82 89.0701 48.39 90.4901 49.68C91.9101 50.97 93.5701 51.62 95.4901 51.62C101.57 51.62 109.12 47.58 118.12 39.49C124.04 34.16 128.54 31.49 131.62 31.49C134.2 31.49 135.5 32.2 135.5 33.61C135.5 34.19 135.21 34.82 134.62 35.48C132.7 37.06 130 39.76 126.49 43.58C124.24 46.82 120.65 55.21 115.74 68.75C116.41 68.75 117.49 68.71 118.99 68.63C120.49 68.55 121.66 68.51 122.49 68.51C124.4 68.51 126.78 68.26 129.62 67.76C135.7 58.68 142.41 50.72 149.75 43.88C159.75 34.63 168.76 30 176.76 30C182.01 30 184.64 32.12 184.64 36.38C184.64 40.13 182.26 44.8 177.51 50.38C170.59 58.55 161.55 64.72 150.38 68.88H150.37ZM172.62 46.63C175.04 43.38 176.25 41.21 176.25 40.13C176.25 39.13 175.54 38.63 174.12 38.63C172.37 38.63 169.87 40.75 166.62 45.01C162.54 50.26 158.95 55.26 155.87 60.01C161.62 57.43 165.79 54.63 168.37 51.63C169.45 50.38 170.87 48.71 172.62 46.63Z" fill="white"/>
<path d="M172.369 108.39C171.949 112.98 173.619 115.31 177.369 115.39C179.699 115.47 182.659 114.47 186.249 112.39C189.499 110.39 192.329 108.14 194.749 105.64C197.919 102.22 200.059 100.16 201.189 99.45C202.309 98.74 202.999 98.39 203.249 98.39C203.909 98.39 204.749 98.72 205.749 99.39C206.159 99.72 206.369 100.14 206.369 100.64C206.369 102.47 203.449 106.1 197.619 111.52C186.869 121.44 177.029 126.4 168.109 126.4C165.359 126.4 162.939 125.82 160.859 124.65C158.029 123.07 155.819 120.61 154.239 117.27C152.909 114.52 152.409 112.19 152.739 110.27C153.069 108.19 153.319 106.81 153.489 106.15C153.989 104.82 154.909 103.61 156.239 102.52C154.069 104.69 152.529 105.77 151.619 105.77C150.869 105.77 150.179 105.4 149.559 104.65C148.939 103.9 148.619 103.15 148.619 102.4C148.619 101.4 149.449 100.32 151.119 99.15C152.039 98.48 154.809 95.4 159.429 89.9C164.059 84.4 168.789 79.86 173.619 76.27C180.449 71.1 186.539 68.52 191.869 68.52C195.369 68.52 198.159 69.56 200.249 71.64C202.579 73.97 203.749 76.47 203.749 79.14C203.749 83.14 201.249 87.81 196.249 93.14C189.329 100.48 181.369 105.56 172.369 108.39ZM180.869 95.76C182.199 95.76 185.039 93.47 189.369 88.88C191.949 86.13 193.249 83.25 193.249 80.25C193.249 78.92 192.749 78.25 191.749 78.25C190.169 78.25 187.329 80.96 183.249 86.38C180.419 89.8 178.999 92.38 178.999 94.13C178.999 95.22 179.619 95.76 180.869 95.76Z" fill="white"/>
<path d="M201.631 105.51C201.211 105.51 200.771 105.16 200.321 104.45C199.861 103.74 199.631 103.06 199.631 102.39C199.631 101.89 199.711 101.47 199.881 101.14C201.961 98.97 205.551 95.06 210.631 89.39C212.961 86.56 216.861 81.08 222.321 72.95C227.781 64.82 231.421 59.05 233.261 55.63C240.681 41.54 245.051 34.79 246.391 35.38C247.641 35.88 249.101 36.96 250.771 38.63C252.431 40.3 253.561 41.92 254.141 43.51C254.971 45.59 255.391 47.05 255.391 47.89C255.391 49.14 254.891 50.81 253.891 52.89C246.471 67.81 238.591 83.9 230.261 101.15C229.341 103.48 228.891 105.11 228.891 106.03C228.891 107.36 229.681 107.86 231.261 107.53C232.511 107.28 234.681 105.59 237.761 102.47C240.841 99.35 242.931 97.78 244.011 97.78C245.841 97.78 246.761 98.53 246.761 100.03C246.761 100.78 246.551 101.41 246.141 101.91C243.641 104.58 241.141 107.29 238.641 110.04C233.641 115.21 229.931 118.54 227.511 120.04C222.261 123.46 217.721 125.17 213.881 125.17C210.041 125.17 207.091 123.38 205.251 119.79C204.921 119.21 204.751 118.41 204.751 117.41C204.751 111.91 209.251 101.57 218.251 86.4C209.411 99.15 203.871 105.53 201.621 105.53L201.631 105.51Z" fill="white"/>
<path d="M282.89 102.39C284.56 101.64 286.14 100.43 287.64 98.77C288.64 97.6 289.81 97.02 291.14 97.02C292.89 97.02 293.76 97.85 293.76 99.52C293.76 100.27 293.01 101.52 291.51 103.27C288.93 106.35 285.59 108.23 281.51 108.9C279.26 115.15 275.68 119.7 270.76 122.53C267.43 124.45 264.01 125.41 260.51 125.41C252.59 125.41 247.51 123.37 245.26 119.28C243.84 116.78 243.14 114.28 243.14 111.78C243.14 107.61 244.76 104.74 248.01 103.15C250.68 101.9 253.38 101.27 256.14 101.27C257.72 101.27 260.68 101.56 265.01 102.15C265.43 100.07 265.55 96.4 265.38 91.15C265.3 86.48 265.63 82.9 266.38 80.4C263.96 81.82 260.17 85.48 255 91.4C248.33 99.07 244.79 103.11 244.37 103.53C242.87 105.03 241.37 105.28 239.87 104.28C238.45 103.28 238.45 101.99 239.87 100.4C243.79 95.82 250.33 88.36 259.5 78.02C263.25 74.02 267.33 70.77 271.75 68.27C276.17 65.77 279.96 64.52 283.13 64.52C288.71 64.52 291.51 66.9 291.51 71.65C291.51 73.4 290.8 74.94 289.39 76.27C287.97 77.61 286.47 78.27 284.89 78.27C284.47 78.27 284.05 78.23 283.64 78.15C281.14 77.48 279.43 77.61 278.52 78.53C277.6 79.45 277.15 80.49 277.15 81.66C277.15 82.83 277.65 85.12 278.65 88.54C278.82 88.96 279.73 91.25 281.4 95.42C282.4 97.92 282.9 100.26 282.9 102.42L282.89 102.39ZM263.14 108.14C257.56 107.47 254.39 107.39 253.64 107.89C252.31 108.72 251.64 109.72 251.64 110.89C251.64 112.39 252.43 113.56 254.01 114.39C254.59 114.64 255.18 114.77 255.76 114.77C258.51 114.77 260.97 112.56 263.13 108.14H263.14Z" fill="white"/>
<path d="M329.521 96.14C328.021 96.14 325.271 98.27 321.271 102.52C318.021 105.94 315.941 107.65 315.021 107.65C314.271 107.65 313.891 107.19 313.891 106.27C313.891 104.27 315.471 99.77 318.641 92.77C322.061 85.27 323.761 80.39 323.761 78.14C323.761 76.22 321.931 73.1 318.261 68.76C317.431 67.76 316.641 67.26 315.891 67.26C315.471 67.26 314.141 67.55 311.891 68.13C310.221 68.55 307.851 70.92 304.761 75.26C302.011 79.18 299.301 83.09 296.641 87.01C291.391 93.6 287.931 97.85 286.261 99.76C285.261 101.34 285.681 102.72 287.511 103.89C289.011 103.81 290.131 103.47 290.881 102.89C295.131 98.06 298.921 93.56 302.261 89.39C297.341 99.48 294.471 105.56 293.631 107.64C292.051 111.47 291.261 114.94 291.261 118.02C291.261 119.52 291.881 121.06 293.131 122.65C294.711 124.65 296.751 125.65 299.251 125.65C303.001 125.65 308.791 122.52 316.631 116.27C323.881 110.52 328.591 105.81 330.761 102.14C331.681 100.56 332.131 99.35 332.131 98.51C332.131 96.93 331.261 96.13 329.511 96.13L329.521 96.14Z" fill="white"/>
<path d="M358.861 32.1C358.861 32.1 357.531 36.06 346.541 39.43C346.541 39.43 332.171 42.94 330.531 45.02C330.531 45.02 328.531 46.29 325.851 49.68C325.851 49.68 320.691 58.82 320.371 62C320.371 62 320.211 62.54 319.981 63.02C319.931 63.22 319.871 63.41 319.811 63.61C320.291 63.75 321.911 64.25 322.851 64.89C322.851 64.89 326.201 65.91 329.111 65.6C329.111 65.6 335.841 64.69 337.981 63.42C337.981 63.42 344.411 60.65 349.581 53.37C349.581 53.37 358.311 41.02 358.861 32.11V32.1Z" fill="#228340"/>
<mask id="mask0_700_508" style="mask-type:luminance" maskUnits="userSpaceOnUse" x="319" y="32" width="40" height="34">
<path d="M358.861 32.1C358.861 32.1 357.531 36.06 346.541 39.43C346.541 39.43 332.171 42.94 330.531 45.02C330.531 45.02 328.531 46.29 325.851 49.68C325.851 49.68 320.691 58.82 320.371 62C320.371 62 320.211 62.54 319.981 63.02C319.931 63.22 319.871 63.41 319.811 63.61C320.291 63.75 321.911 64.25 322.851 64.89C322.851 64.89 326.201 65.91 329.111 65.6C329.111 65.6 335.841 64.69 337.981 63.42C337.981 63.42 344.411 60.65 349.581 53.37C349.581 53.37 358.311 41.02 358.861 32.11V32.1Z" fill="white"/>
</mask>
<g mask="url(#mask0_700_508)">
<path d="M319.52 62.77C319.52 62.77 321.43 62.17 324.2 61.15C325.59 60.64 327.2 59.99 328.9 59.26C330.6 58.51 332.38 57.65 334.12 56.71C334.98 56.22 335.85 55.75 336.67 55.22C337.51 54.72 338.29 54.17 339.06 53.65C339.81 53.1 340.54 52.58 341.19 52.03C341.84 51.49 342.47 50.98 343 50.45C343.55 49.95 344.04 49.47 344.45 49.02C344.87 48.58 345.24 48.2 345.5 47.86C346.06 47.19 346.37 46.81 346.37 46.81L346.41 46.84C346.41 46.84 346.11 47.24 345.59 47.94C345.34 48.3 344.99 48.7 344.6 49.17C344.21 49.64 343.75 50.15 343.22 50.69C342.71 51.25 342.11 51.79 341.48 52.38C340.85 52.96 340.14 53.54 339.41 54.13C338.66 54.7 337.89 55.3 337.07 55.85C336.27 56.43 335.41 56.95 334.57 57.5C332.85 58.54 331.09 59.52 329.41 60.36C327.72 61.2 326.13 61.94 324.74 62.53C323.36 63.13 322.18 63.6 321.37 63.92C320.56 64.24 320.09 64.42 320.09 64.42L319.49 62.77H319.52Z" fill="white"/>
</g>
<path d="M318.74 63.23C318.74 63.23 326.54 48.88 311.58 42.7C311.58 42.7 304.85 39.9 301.25 39.6C301.25 39.6 305.59 45.82 305.7 50.84C305.7 50.84 306.14 54.34 307.03 55.9C307.03 55.9 309.21 63.09 318.74 63.24V63.23Z" fill="#228340"/>
<path d="M317.86 63.62C317.86 63.62 317.74 62.47 317.36 60.73C317.16 59.87 316.92 58.85 316.59 57.79C316.44 57.25 316.25 56.71 316.05 56.16C315.87 55.6 315.62 55.07 315.4 54.51C315.16 53.97 314.9 53.43 314.64 52.91C314.35 52.41 314.09 51.89 313.79 51.42C313.47 50.96 313.2 50.49 312.88 50.09C312.56 49.7 312.27 49.3 311.97 48.97C311.66 48.65 311.37 48.36 311.11 48.1C310.85 47.84 310.58 47.67 310.39 47.49C309.98 47.16 309.74 46.98 309.74 46.98V46.96C309.74 46.96 310 47.13 310.44 47.42C310.65 47.58 310.94 47.73 311.22 47.97C311.5 48.21 311.82 48.48 312.16 48.78C312.49 49.09 312.82 49.46 313.18 49.84C313.54 50.22 313.85 50.68 314.22 51.12C314.57 51.57 314.87 52.08 315.21 52.58C315.51 53.1 315.83 53.62 316.12 54.16C316.39 54.71 316.69 55.24 316.92 55.8C317.17 56.35 317.41 56.89 317.61 57.43C318.04 58.49 318.37 59.51 318.64 60.39C319.17 62.14 319.4 63.38 319.4 63.38L317.87 63.62H317.86Z" fill="white"/>
<path d="M170.961 154.39C227.141 154.51 282.691 154.51 338.741 154.39Z" fill="white"/>
<path d="M170.961 154.39C227.141 154.51 282.691 154.51 338.741 154.39" stroke="white" stroke-miterlimit="10"/>
<path d="M31 160.61L33.52 148.53H41.37L41.08 149.91H34.85L34.05 153.76H40.4L40.11 155.14H33.76L32.61 160.62H31V160.61Z" fill="white"/>
<path d="M42.0801 155.55C42.0801 153.4 42.7001 151.66 43.9501 150.32C45.1901 148.99 46.7001 148.32 48.4801 148.32C49.9901 148.32 51.2101 148.81 52.1601 149.79C53.1101 150.77 53.5801 152.08 53.5801 153.73C53.5801 154.91 53.3401 156 52.8601 157C52.5001 157.75 52.0501 158.4 51.5101 158.95C50.9701 159.5 50.3801 159.92 49.7601 160.21C48.9401 160.6 48.0601 160.8 47.1401 160.8C46.2201 160.8 45.2901 160.57 44.5001 160.11C43.7101 159.65 43.1101 159.01 42.7001 158.18C42.2901 157.35 42.0901 156.47 42.0901 155.54L42.0801 155.55ZM43.6701 155.63C43.6701 156.34 43.8201 156.99 44.1101 157.58C44.4001 158.17 44.8401 158.64 45.4201 158.97C46.0001 159.3 46.6101 159.47 47.2601 159.47C47.9101 159.47 48.4701 159.32 49.0301 159.03C49.5901 158.74 50.0901 158.33 50.5301 157.8C50.9701 157.28 51.3201 156.63 51.5801 155.86C51.8301 155.09 51.9601 154.34 51.9601 153.6C51.9601 152.4 51.6201 151.44 50.9501 150.72C50.2801 150.01 49.4501 149.65 48.4601 149.65C47.2001 149.65 46.0801 150.19 45.1201 151.27C44.1501 152.35 43.6701 153.8 43.6701 155.62V155.63Z" fill="white"/>
<path d="M54.4492 160.61L56.9792 148.53H62.0492C63.0492 148.53 63.8092 148.61 64.3192 148.78C64.8392 148.95 65.2392 149.26 65.5392 149.72C65.8292 150.18 65.9792 150.76 65.9792 151.47C65.9792 152.45 65.6592 153.27 65.0192 153.92C64.3792 154.57 63.3392 154.99 61.9092 155.18C62.3492 155.5 62.6792 155.82 62.9092 156.14C63.4092 156.85 63.8192 157.58 64.1292 158.34L65.0492 160.61H63.2492L62.3792 158.36C62.0692 157.55 61.7092 156.84 61.3092 156.25C61.0392 155.84 60.7592 155.57 60.4692 155.44C60.1792 155.31 59.7192 155.25 59.0792 155.25H57.1992L56.0792 160.61H54.4692H54.4492ZM57.4592 153.94H59.6892C60.7192 153.94 61.3992 153.93 61.7092 153.9C62.3192 153.84 62.8192 153.7 63.2092 153.49C63.5992 153.28 63.8992 152.99 64.1192 152.62C64.3292 152.26 64.4392 151.87 64.4392 151.45C64.4392 151.1 64.3592 150.79 64.1992 150.53C64.0392 150.27 63.8292 150.09 63.5792 150C63.3192 149.91 62.8792 149.86 62.2592 149.86H58.3192L57.4592 153.94Z" fill="white"/>
<path d="M74.9395 160.61L75.9095 155.94L72.1895 148.53H73.9195L75.6995 152.06C76.0895 152.83 76.4695 153.65 76.8395 154.53C77.2495 153.78 77.7995 152.97 78.4995 152.08L81.3295 148.53H83.2595L77.4895 156.06L76.5395 160.61H74.9295H74.9395Z" fill="white"/>
<path d="M83.0195 155.55C83.0195 153.4 83.6395 151.66 84.8895 150.32C86.1295 148.99 87.6395 148.32 89.4195 148.32C90.9195 148.32 92.1495 148.81 93.0995 149.79C94.0495 150.77 94.5195 152.08 94.5195 153.73C94.5195 154.91 94.2795 156 93.7995 157C93.4395 157.75 92.9895 158.4 92.4495 158.95C91.9095 159.5 91.3195 159.92 90.6995 160.21C89.8795 160.6 88.9995 160.8 88.0795 160.8C87.1595 160.8 86.2295 160.57 85.4395 160.11C84.6495 159.65 84.0395 159.01 83.6395 158.18C83.2295 157.35 83.0295 156.47 83.0295 155.54L83.0195 155.55ZM84.6095 155.63C84.6095 156.34 84.7595 156.99 85.0495 157.58C85.3395 158.17 85.7795 158.64 86.3595 158.97C86.9395 159.3 87.5595 159.47 88.1995 159.47C88.8395 159.47 89.4095 159.32 89.9695 159.03C90.5295 158.74 91.0295 158.33 91.4695 157.8C91.9095 157.28 92.2595 156.63 92.5195 155.86C92.7795 155.09 92.8995 154.34 92.8995 153.6C92.8995 152.4 92.5595 151.44 91.8895 150.72C91.2195 150.01 90.3895 149.65 89.3995 149.65C88.1395 149.65 87.0195 150.19 86.0595 151.27C85.0995 152.35 84.6095 153.8 84.6095 155.62V155.63Z" fill="white"/>
<path d="M97.95 148.53H99.56L98.01 155.95C97.88 156.57 97.82 157.02 97.82 157.32C97.82 157.97 98.08 158.49 98.59 158.89C99.1 159.29 99.74 159.48 100.52 159.48C101.14 159.48 101.71 159.34 102.24 159.06C102.77 158.78 103.19 158.36 103.5 157.81C103.81 157.26 104.09 156.38 104.33 155.18L105.72 148.53H107.34L105.87 155.61C105.62 156.82 105.28 157.78 104.87 158.48C104.46 159.19 103.89 159.75 103.16 160.18C102.43 160.6 101.58 160.82 100.62 160.82C99.71 160.82 98.92 160.67 98.25 160.37C97.58 160.07 97.08 159.65 96.75 159.12C96.42 158.59 96.25 157.98 96.25 157.31C96.25 156.89 96.36 156.16 96.59 155.13L97.97 148.54L97.95 148.53Z" fill="white"/>
<path d="M107.58 160.61L110.11 148.53H115.18C116.18 148.53 116.94 148.61 117.45 148.78C117.97 148.95 118.37 149.26 118.67 149.72C118.96 150.18 119.11 150.76 119.11 151.47C119.11 152.45 118.79 153.27 118.15 153.92C117.51 154.57 116.47 154.99 115.04 155.18C115.48 155.5 115.81 155.82 116.04 156.14C116.54 156.85 116.95 157.58 117.26 158.34L118.18 160.61H116.38L115.51 158.36C115.2 157.55 114.84 156.84 114.44 156.25C114.17 155.84 113.89 155.57 113.6 155.44C113.31 155.31 112.85 155.25 112.21 155.25H110.33L109.21 160.61H107.6H107.58ZM110.59 153.94H112.82C113.85 153.94 114.53 153.93 114.84 153.9C115.45 153.84 115.95 153.7 116.34 153.49C116.73 153.28 117.03 152.99 117.25 152.62C117.46 152.26 117.57 151.87 117.57 151.45C117.57 151.1 117.49 150.79 117.33 150.53C117.17 150.27 116.96 150.09 116.71 150C116.45 149.91 116.01 149.86 115.39 149.86H111.45L110.59 153.94Z" fill="white"/>
<path d="M124.34 160.61L126.86 148.53H128.47L126.24 159.24H132.51L132.22 160.61H124.34Z" fill="white"/>
<path d="M134.01 160.61L136.54 148.53H138.15L135.63 160.61H134.02H134.01Z" fill="white"/>
<path d="M138.5 160.61L141.02 148.53H148.87L148.58 149.91H142.34L141.54 153.76H147.89L147.6 155.14H141.25L140.1 160.62H138.49L138.5 160.61Z" fill="white"/>
<path d="M148.801 160.61L151.331 148.53H160.051L159.761 149.91H152.661L151.871 153.67H158.791L158.501 155.05H151.581L150.711 159.25H158.311L158.021 160.62H148.801V160.61Z" fill="white"/>
</svg>
