<?xml version="1.0" standalone="no"?>
<!DOCTYPE svg PUBLIC "-//W3C//DTD SVG 20010904//EN"
 "http://www.w3.org/TR/2001/REC-SVG-20010904/DTD/svg10.dtd">
<svg version="1.0" xmlns="http://www.w3.org/2000/svg"
 width="325.000000pt" height="325.000000pt" viewBox="0 0 325.000000 325.000000"
 preserveAspectRatio="xMidYMid meet">
<metadata>
Created by potrace 1.14, written by Peter Selinger 2001-2017
</metadata>
<g transform="translate(0.000000,325.000000) scale(0.100000,-0.100000)"
fill="#000000" stroke="none">
<path d="M1469 3236 c-2 -2 -26 -6 -54 -9 -128 -14 -317 -67 -453 -128 -138
-62 -325 -186 -436 -288 -264 -245 -460 -623 -503 -972 -15 -119 -9 -396 11
-498 83 -436 306 -786 664 -1044 164 -118 424 -231 602 -261 19 -3 47 -8 61
-11 109 -21 346 -26 464 -10 94 12 110 16 205 40 533 136 965 539 1135 1060
19 58 37 120 40 138 4 18 10 50 15 72 34 159 32 495 -4 612 -3 10 -8 33 -11
51 -10 62 -67 227 -106 309 -21 45 -39 85 -39 88 0 3 -8 18 -18 33 -10 15 -41
61 -68 102 -216 329 -569 578 -954 673 -36 9 -82 19 -104 23 -21 3 -48 8 -60
11 -25 7 -380 15 -387 9z"/>
</g>
</svg>
